# AST/ASF file generated using VICON BodyLanguage
# -----------------------------------------------
:version 1.10
:name VICON
:units
  mass 1.0
  length 0.45
  angle deg
:documentation
   .ast/.asf automatically generated from VICON data using
   VICON BodyBuilder and BodyLanguage model FoxedUp or BRILLIANT.MOD
:root
   order TX TY TZ RX RY RZ
   axis XYZ
   position 0 0 0  
   orientation 0 0 0 
:bonedata
  begin
     id 1 
     name lhipjoint
     direction 0.589753 -0.68606 0.426044 
     length 2.54082 
     axis 0 0 0  XYZ
  end
  begin
     id 2 
     name lfemur
     direction 0.34202 -0.939693 0  
     length 7.04539  
     axis 0 0 20  XYZ
    dof rx ry rz
    limits (-160.0 20.0)
           (-70.0 70.0)
           (-60.0 70.0)
  end
  begin
     id 3 
     name ltibia
     direction 0.34202 -0.939693 0   
     length 7.83772   
     axis 0 0 20   XYZ
    dof rx
    limits (-10.0 170.0)
  end
  begin
     id 4 
     name lfoot
     direction 0.0596604 -0.163915 0.984669   
     length 2.39542   
     axis -90 7.62852e-016 20   XYZ
    dof rx rz
    limits (-45.0 90.0)
           (-70.0 20.0)
  end
  begin
     id 5 
     name ltoes
     direction 1.53514e-011 -4.21954e-011 1   
     length 1.2047   
     axis -90 7.62852e-016 20   XYZ
    dof rx
    limits (-90.0 20.0)
  end
  begin
     id 6 
     name rhipjoint
     direction -0.580585 -0.69168 0.429534   
     length 2.52018  
     axis 0 0 0  XYZ 
  end
  begin
     id 7 
     name rfemur
     direction -0.34202 -0.939693 0   
     length 7.0101   
     axis 0 0 -20   XYZ
    dof rx ry rz
    limits (-160.0 20.0)
           (-70.0 70.0)
           (-70.0 60.0)
  end
  begin
     id 8 
     name rtibia
     direction -0.34202 -0.939693 0   
     length 7.70628   
     axis 0 0 -20   XYZ
    dof rx
    limits (-10.0 170.0)
 end
 begin
     id 9 
     name rfoot
     direction -0.0696237 -0.19129 0.979061   
     length 2.52466  
     axis -90 -7.62852e-016 -20   XYZ
    dof rx rz
    limits (-45.0 90.0)
           (-20.0 70.0)
  end
  begin
     id 10 
     name rtoes
     direction -1.53519e-011 -4.21793e-011 1   
     length 1.266   
     axis -90 -7.62852e-016 -20   XYZ
    dof rx
    limits (-90.0 20.0)
  end
  begin
     id 11 
     name lowerback
     direction 0.00381965 0.995707 -0.0924856   
     length 2.20825   
     axis 0 0 0   XYZ
    dof rx ry rz
    limits (-20.0 45.0)
           (-30.0 30.0)
           (-30.0 30.0)
  end
  begin
     id 12 
     name upperback
     direction -0.0139043 0.999634 -0.0231929   
     length 2.21517   
     axis 0 0 0   XYZ
    dof rx ry rz
    limits (-20.0 45.0)
           (-30.0 30.0)
           (-30.0 30.0)
  end
  begin
     id 13 
     name thorax
     direction -0.0143933 0.999691 0.0202892   
     length 2.22911   
     axis 0 0 0   XYZ
    dof rx ry rz
    limits (-20.0 45.0)
           (-30.0 30.0)
           (-30.0 30.0)
  end
  begin
     id 14 
     name lowerneck
     direction -0.0251153 0.981819 0.188153   
     length 1.61782   
     axis 0 0 0   XYZ
    dof rx ry rz
    limits (-20.0 45.0)
           (-30.0 30.0)
           (-30.0 30.0)
  end
  begin
     id 15 
     name upperneck
     direction 0.0563891 0.969357 -0.239095   
     length 1.64526   
     axis 0 0 0   XYZ
    dof rx ry rz
    limits (-20.0 45.0)
           (-30.0 30.0)
           (-30.0 30.0)
  end
  begin
     id 16
     name head
     direction 0.0208328 0.99459 -0.101773  
     length 1.67436  
     axis 0 0 0   XYZ
    dof rx ry rz
    limits (-20.0 45.0)
           (-30.0 30.0)
           (-30.0 30.0)
  end
  begin
     id 17 
     name lclavicle
     direction 0.917689 0.397224 0.00772059  
     length 3.31102  
     axis 0 0 0   XYZ
    dof ry rz
    limits (-20.0 10.0)
           (0.0 20.0)
  end
  begin
     id 18 
     name lhumerus
     direction 1 -4.4896e-011 2.32308e-027   
     length 5.25537   
     axis 180 -30 -90   XYZ
    dof rx ry rz
    limits (-60.0 90.0)
           (-90.0 90.0)
           (-90.0 90.0)
  end
  begin
     id 19
     name lradius
     direction 1 -4.49005e-011 -2.04271e-027   
     length 3.38855   
     axis 180 -30 -90   XYZ
    dof rx
    limits (-10.0 170.0)
  end
  begin
     id 20
     name lwrist
     direction 1 -4.48892e-011 2.56952e-028   
     length 1.69428   
     axis -5.12785e-016 90 90   XYZ
    dof ry
    limits (-180.0 0.0)
 end
  begin
     id 21 
     name lhand
     direction 1 -4.48966e-011 5.13905e-028   
     length 0.614516   
     axis -3.27915e-016 90 90   XYZ
    dof rx rz
    limits (-90.0 90.0)
           (-45.0 45.0)
  end
  begin
     id 22 
     name lfingers
     direction 1 -4.48979e-011 1.02781e-027   
     length 0.495439   
     axis -6.5583e-016 90 90   XYZ
    dof rx
    limits (0.0 90.0)
  end
  begin
     id 23
     name lthumb
     direction 0.707107 -6.35001e-011 0.707107   
     length 0.711354   
     axis -90 45 2.85299e-015   XYZ
    dof rx rz
    limits (-45.0 45.0)
           (-45.0 45.0)
  end
  begin
     id 24 
     name rclavicle
     direction -0.938556 0.342765 -0.0403177   
     length 3.27019  
     axis 0 0 0   XYZ 
    dof ry rz
    limits (-10.0 20.0)
           (-20.0 0.0)
  end
  begin
     id 25 
     name rhumerus
     direction -1 -4.48966e-011 2.52291e-027  
     length 5.38183   
     axis 180 30 90   XYZ
    dof rx ry rz
    limits (-90.0 60.0)
           (-90.0 90.0)
           (-90.0 90.0)
  end
  begin
     id 26 
     name rradius
     direction -1 -4.4896e-011 1.5797e-027   
     length 3.16988   
     axis 180 30 90   XYZ
    dof rx
    limits (-10.0 170.0)
  end
  begin
     id 27 
     name rwrist
     direction -1 -4.48947e-011 2.56952e-028   
     length 1.58494   
     axis -5.12785e-016 -90 -90   XYZ
    dof ry
    limits (-180.0 0.0)
  end
  begin
     id 28
     name rhand
     direction -1 -4.49098e-011 5.13905e-028   
     length 0.637679   
     axis -3.27915e-016 -90 -90   XYZ
    dof rx rz
    limits (-90.0 90.0)
           (-45.0 45.0)
  end
  begin
     id 29
     name rfingers
     direction -1 -4.49026e-011 1.02781e-027   
     length 0.514113   
     axis -6.5583e-016 -90 -90   XYZ
    dof rx
    limits (0.0 90.0)
  end
  begin
     id 30
     name rthumb
     direction -0.707107 -6.3491e-011 0.707107   
     length 0.738167   
     axis -90 -45 -2.85299e-015   XYZ
    dof rx rz
    limits (-45.0 45.0)
           (-45.0 45.0)
  end
:hierarchy
  begin
    root lhipjoint rhipjoint lowerback
    lhipjoint lfemur
    lfemur ltibia
    ltibia lfoot
    lfoot ltoes
    rhipjoint rfemur
    rfemur rtibia
    rtibia rfoot
    rfoot rtoes
    lowerback upperback
    upperback thorax
    thorax lowerneck lclavicle rclavicle
    lowerneck upperneck
    upperneck head
    lclavicle lhumerus
    lhumerus lradius
    lradius lwrist
    lwrist lhand lthumb
    lhand lfingers
    rclavicle rhumerus
    rhumerus rradius
    rradius rwrist
    rwrist rhand rthumb
    rhand rfingers
  end

#!OML:ASF H:\Swim\Project 1\Capture day 1\Session 1\swimmer.ASF
:FULLY-SPECIFIED
:DEGREES
4427
root 5.79916 11.7691 21.0661 86.582 -0.470011 -5.52581
lowerback 7.21955 -1.46796 0.58839
upperback -4.71306 -2.11678 -2.17877
thorax -9.16395 -1.15732 -2.32578
lowerneck -14.4587 -1.00687 -11.4491
upperneck 5.31593 -1.50188 25.7661
head 4.41419 0.382789 10.2799
rclavicle 2.06736e-014 3.57812e-015
rhumerus 436.372 -19.0912 343.551
rradius 28.1748
rwrist -27.8197
rhand -9.66997 -3.99751
rfingers 7.12502
rthumb 16.3014 -393.332
lclavicle 2.06736e-014 3.57812e-015
lhumerus 5.21303 -63.4182 9.45962
lradius 94.7717
lwrist 35.4182
lhand 22.2229 -719.426
lfingers 7.12502
lthumb 46.6 23.4148
rfemur -16.7273 3.62811 25.2841
rtibia 38.9259
rfoot 11.9527 -7.9727
rtoes 6.25721
lfemur -16.9249 -2.67395 -21.1249
ltibia 36.7974
lfoot 5.36257 5.17898
ltoes -1.37918
4428
root 5.77592 11.7684 21.0772 86.954 -0.346919 -5.28284
lowerback 7.11704 -1.20978 0.864391
upperback -4.87174 -1.74937 -2.30965
thorax -9.27338 -1.00228 -2.67902
lowerneck -14.5778 -1.40695 -11.5231
upperneck 5.10828 -2.00797 25.7576
head 4.48037 0.131661 10.2472
rclavicle 1.74931e-014 0
rhumerus 436.326 -18.5324 343.572
rradius 27.9139
rwrist -30.0825
rhand -12.1011 -4.74054
rfingers 7.12502
rthumb 13.9596 -394.252
lclavicle 1.74931e-014 0
lhumerus 4.15738 -62.4862 10.2079
lradius 96.0793
lwrist 35.2585
lhand 22.1539 -718.871
lfingers 7.12502
lthumb 46.536 23.9969
rfemur -17.6936 4.06553 25.2285
rtibia 38.7394
rfoot 10.282 -9.10578
rtoes 6.08559
lfemur -16.7681 -2.37387 -21.1633
ltibia 36.8642
lfoot 5.99294 4.71571
ltoes -1.17917
4429
root 5.75334 11.7676 21.0922 87.3316 -0.233419 -5.05431
lowerback 6.99788 -0.953463 1.13815
upperback -5.01126 -1.38406 -2.44396
thorax -9.34707 -0.848343 -3.03498
lowerneck -14.6755 -1.81037 -11.6851
upperneck 4.82981 -2.49697 25.8454
head 4.52304 -0.113343 10.2645
rclavicle 1.11319e-014 1.98785e-016
rhumerus 436.02 -18.0673 344.087
rradius 27.9099
rwrist -32.7688
rhand -14.1697 -5.47122
rfingers 7.12502
rthumb 11.9655 -395.109
lclavicle 1.11319e-014 1.98785e-016
lhumerus 2.92753 -61.4473 11.05
lradius 97.4085
lwrist 34.8768
lhand 21.8649 -718.596
lfingers 7.12502
lthumb 46.2682 24.3862
rfemur -18.6634 4.48367 25.1414
rtibia 38.5281
rfoot 8.44094 -10.3129
rtoes 5.8156
lfemur -16.5552 -2.03603 -21.2043
ltibia 36.8558
lfoot 6.55123 4.31154
ltoes -0.934602
4430
root 5.73142 11.7669 21.1113 87.7068 -0.130654 -4.84221
lowerback 6.87 -0.705191 1.40468
upperback -5.135 -1.03017 -2.58175
thorax -9.39391 -0.69956 -3.38885
lowerneck -14.7364 -2.20418 -11.9135
upperneck 4.48101 -2.95542 26.0228
head 4.538 -0.346522 10.3265
rclavicle 3.18055e-015 -1.94809e-014
rhumerus 435.921 -17.6841 344.361
rradius 27.7196
rwrist -34.9947
rhand -15.6601 -6.01309
rfingers 7.12502
rthumb 10.5281 -395.729
lclavicle 3.18055e-015 -1.94809e-014
lhumerus 1.51915 -60.3225 11.9714
lradius 98.7463
lwrist 34.1924
lhand 21.3095 -718.661
lfingers 7.12502
lthumb 45.753 24.5355
rfemur -19.6186 4.87011 25.0226
rtibia 38.2885
rfoot 6.52672 -11.5024
rtoes 5.47231
lfemur -16.2805 -1.7303 -21.2511
ltibia 36.7701
lfoot 7.01234 4.00263
ltoes -0.616353
4431
root 5.71016 11.7663 21.1344 88.0742 -0.0371243 -4.64289
lowerback 6.74743 -0.473822 1.65394
upperback -5.26223 -0.700615 -2.71327
thorax -9.44436 -0.561721 -3.72245
lowerneck -14.7212 -2.57781 -12.2249
upperneck 4.06519 -3.37034 26.3128
head 4.51907 -0.563478 10.4471
rclavicle -1.66979e-014 8.34896e-015
rhumerus 435.811 -17.3305 344.681
rradius 27.5662
rwrist -36.8644
rhand -16.6521 -6.48317
rfingers 7.12502
rthumb 9.57104 -396.246
lclavicle -1.66979e-014 8.34896e-015
lhumerus -0.104393 -59.1223 13.0019
lradius 100.12
lwrist 33.3828
lhand 20.5795 -718.88
lfingers 7.12502
lthumb 45.0745 24.5898
rfemur -20.5477 5.26089 24.8726
rtibia 38.0248
rfoot 4.63709 -12.6299
rtoes 5.08988
lfemur -15.9491 -1.47079 -21.3026
ltibia 36.6117
lfoot 7.37641 3.7782
ltoes -0.321021
4432
root 5.68961 11.7661 21.1602 88.418 0.0424149 -4.45057
lowerback 6.64071 -0.266341 1.88851
upperback -5.37894 -0.403872 -2.83339
thorax -9.49085 -0.438641 -4.03037
lowerneck -14.6563 -2.905 -12.5086
upperneck 3.65249 -3.7194 26.4914
head 4.47576 -0.755424 10.5251
rclavicle -1.19271e-014 -2.99171e-014
rhumerus 435.714 -17.0097 345.041
rradius 27.4305
rwrist -38.2785
rhand -17.1953 -6.88284
rfingers 7.12502
rthumb 9.04685 -396.669
lclavicle -1.19271e-014 -2.99171e-014
lhumerus -1.90681 -57.8293 14.1174
lradius 101.518
lwrist 32.5059
lhand 19.7102 -719.175
lfingers 7.12502
lthumb 44.265 24.6083
rfemur -21.427 5.70113 24.6813
rtibia 37.7449
rfoot 2.84552 -13.6991
rtoes 4.71076
lfemur -15.564 -1.2103 -21.3611
ltibia 36.3959
lfoot 7.66474 3.5873
ltoes -0.100615
4433
root 5.66959 11.7666 21.1879 88.7316 0.113296 -4.26237
lowerback 6.55839 -0.0908029 2.11481
upperback -5.48465 -0.150101 -2.94069
thorax -9.53998 -0.335808 -4.31345
lowerneck -14.5762 -3.19098 -12.7721
upperneck 3.26421 -4.01371 26.5907
head 4.42285 -0.923145 10.5745
rclavicle -6.36111e-015 -1.20265e-014
rhumerus 435.637 -16.7003 345.439
rradius 27.3041
rwrist -39.252
rhand -17.3981 -7.19887
rfingers 7.12502
rthumb 8.85119 -396.993
lclavicle -6.36111e-015 -1.20265e-014
lhumerus -3.85622 -56.4419 15.2759
lradius 102.944
lwrist 31.6862
lhand 18.7299 -719.448
lfingers 7.12502
lthumb 43.3501 24.6732
rfemur -22.2405 6.31866 24.4457
rtibia 37.4561
rfoot 1.21738 -14.7872
rtoes 4.47667
lfemur -15.14 -0.984746 -21.4225
ltibia 36.1465
lfoot 7.91237 3.45226
ltoes 0.116832
4434
root 5.64998 11.7676 21.2161 89.0014 0.179115 -4.07604
lowerback 6.50378 0.0498412 2.33898
upperback -5.56576 0.0580167 -3.02979
thorax -9.58004 -0.254285 -4.56893
lowerneck -14.4931 -3.44165 -13.0426
upperneck 2.90013 -4.25623 26.6119
head 4.36275 -1.06735 10.6013
rclavicle -1.35174e-014 -1.48095e-014
rhumerus 435.596 -16.4074 345.867
rradius 27.1859
rwrist -39.8378
rhand -17.3395 -7.40789
rfingers 7.12502
rthumb 8.90772 -397.2
lclavicle -1.35174e-014 -1.48095e-014
lhumerus -5.90531 -54.9359 16.4461
lradius 104.396
lwrist 30.9732
lhand 17.6838 -719.616
lfingers 7.12502
lthumb 42.3716 24.8485
rfemur -22.9682 7.0903 24.1655
rtibia 37.1651
rfoot -0.192237 -15.8617
rtoes 4.23146
lfemur -14.684 -0.75949 -21.4802
ltibia 35.889
lfoot 8.10318 3.35026
ltoes 0.0651628
4435
root 5.6305 11.7695 21.2441 89.2393 0.256708 -3.89233
lowerback 6.46914 0.151653 2.5786
upperback -5.62726 0.216724 -3.10179
thorax -9.61336 -0.197269 -4.80753
lowerneck -14.4603 -3.67716 -13.3228
upperneck 2.59051 -4.48168 26.6114
head 4.32339 -1.19802 10.6253
rclavicle 2.38542e-015 -9.14409e-015
rhumerus 435.601 -16.1258 346.282
rradius 27.0778
rwrist -40.1065
rhand -17.0842 -7.50483
rfingers 7.12502
rthumb 9.15413 -397.286
lclavicle 2.38542e-015 -9.14409e-015
lhumerus -8.01292 -53.3132 17.5788
lradius 105.867
lwrist 30.3777
lhand 16.5908 -719.637
lfingers 7.12502
lthumb 41.3469 25.1685
rfemur -23.6135 8.06004 23.8553
rtibia 36.8746
rfoot -1.36021 -16.9491
rtoes 4.09893
lfemur -14.2326 -0.509939 -21.5118
ltibia 35.6502
lfoot 8.3004 3.23908
ltoes -0.102977
4436
root 5.61101 11.7722 21.2717 89.454 0.347367 -3.71225
lowerback 6.43788 0.220598 2.83363
upperback -5.66929 0.333674 -3.15928
thorax -9.63027 -0.16078 -5.03284
lowerneck -14.4876 -3.91641 -13.6478
upperneck 2.31346 -4.71053 26.6642
head 4.30934 -1.32333 10.6795
rclavicle -5.56597e-015 -2.62396e-014
rhumerus 435.649 -15.8581 346.675
rradius 26.9717
rwrist -40.1511
rhand -16.7131 -7.46996
rfingers 7.12502
rthumb 9.51213 -397.235
lclavicle -5.56597e-015 -2.62396e-014
lhumerus -10.1162 -51.5644 18.6278
lradius 107.357
lwrist 29.8761
lhand 15.4942 -719.51
lfingers 7.12502
lthumb 40.3167 25.6196
rfemur -24.1812 9.16228 23.526
rtibia 36.5894
rfoot -2.23069 -17.9985
rtoes 4.02578
lfemur -13.8082 -0.26205 -21.5177
ltibia 35.4482
lfoot 8.5021 3.13084
ltoes -0.393231
4437
root 5.59152 11.7757 21.2985 89.6554 0.46172 -3.53767
lowerback 6.39957 0.265089 3.10975
upperback -5.70282 0.419915 -3.21028
thorax -9.63614 -0.140333 -5.25847
lowerneck -14.5784 -4.16486 -13.9712
upperneck 2.08147 -4.9612 26.7812
head 4.3287 -1.45078 10.7569
rclavicle 0 5.91384e-015
rhumerus 435.713 -15.5962 347.024
rradius 26.8727
rwrist -40.0702
rhand -16.2791 -7.32075
rfingers 7.12502
rthumb 9.93092 -397.066
lclavicle 0 5.91384e-015
lhumerus -12.1677 -49.7367 19.5509
lradius 108.847
lwrist 29.3534
lhand 14.341 -719.354
lfingers 7.12502
lthumb 39.231 26.0997
rfemur -24.6745 10.3036 23.2049
rtibia 36.3132
rfoot -2.81125 -18.9446
rtoes 4.04957
lfemur -13.4342 0.0183669 -21.4842
ltibia 35.2961
lfoot 8.71382 2.98224
ltoes -0.865392
4438
root 5.57214 11.7797 21.3246 89.8504 0.587688 -3.36911
lowerback 6.34725 0.292232 3.39214
upperback -5.73627 0.482948 -3.25765
thorax -9.6357 -0.131545 -5.48021
lowerneck -14.7654 -4.43033 -14.2631
upperneck 1.95958 -5.25597 26.9201
head 4.40806 -1.58751 10.8345
rclavicle -5.1684e-015 2.23633e-015
rhumerus 435.79 -15.3236 347.318
rradius 26.7745
rwrist -39.9438
rhand -15.8474 -7.06437
rfingers 7.12502
rthumb 10.3474 -396.79
lclavicle -5.1684e-015 2.23633e-015
lhumerus -14.1327 -47.8157 20.3275
lradius 110.365
lwrist 28.9443
lhand 13.3873 -719.031
lfingers 7.12502
lthumb 38.3315 26.6776
rfemur -25.0945 11.3385 22.9052
rtibia 36.0522
rfoot -3.08371 -19.6812
rtoes 4.10198
lfemur -13.1199 0.303111 -21.4297
ltibia 35.1979
lfoot 8.92984 2.80617
ltoes -1.36093
4439
root 5.55307 11.7843 21.3503 90.0564 0.719601 -3.20495
lowerback 6.26663 0.307859 3.67208
upperback -5.78611 0.528164 -3.31348
thorax -9.63841 -0.132267 -5.70718
lowerneck -15.0134 -4.70397 -14.4839
upperneck 1.92642 -5.58882 27.0874
head 4.53331 -1.73322 10.9064
rclavicle -7.15625e-015 1.69961e-014
rhumerus 435.851 -15.0182 347.559
rradius 26.6778
rwrist -39.8487
rhand -15.4535 -6.74816
rfingers 7.12502
rthumb 10.7274 -396.454
lclavicle -7.15625e-015 1.69961e-014
lhumerus -15.9951 -45.8558 20.9246
lradius 111.917
lwrist 28.6233
lhand 12.58 -718.6
lfingers 7.12502
lthumb 37.5691 27.3156
rfemur -25.4567 12.1865 22.6382
rtibia 35.8125
rfoot -3.05841 -20.1656
rtoes 4.11905
lfemur -12.8861 0.560461 -21.3662
ltibia 35.1556
lfoot 9.1543 2.62141
ltoes -1.72086
